static_01
version=1
nRows=22
nColumns=46
inDegrees=yes
endheader
time	ground_force3_vx	ground_force3_vy	ground_force3_vz	ground_force3_px	ground_force3_py	ground_force3_pz	ground_torque3_x	ground_torque3_y	ground_torque3_z	ground_force5_vx	ground_force5_vy	ground_force5_vz	ground_force5_px	ground_force5_py	ground_force5_pz	ground_torque5_x	ground_torque5_y	ground_torque5_z	ground_force4_vx	ground_force4_vy	ground_force4_vz	ground_force4_px	ground_force4_py	ground_force4_pz	ground_torque4_x	ground_torque4_y	ground_torque4_z	ground_force1_vx	ground_force1_vy	ground_force1_vz	ground_force1_px	ground_force1_py	ground_force1_pz	ground_torque1_x	ground_torque1_y	ground_torque1_z	ground_force2_vx	ground_force2_vy	ground_force2_vz	ground_force2_px	ground_force2_py	ground_force2_pz	ground_torque2_x	ground_torque2_y	ground_torque2_z
0.000000	-0.000000	-0.000000	0.000000	0.200000	0.000000	-0.300000	0.000000	0.000000	-0.000000	2.146580	501.432068	66.037674	0.210146	0.000000	-1.397868	0.000066	-1.685604	-0.000001	-0.165958	452.122925	-60.346512	0.218503	0.000000	-0.968863	0.000023	1.612194	0.000006	-0.000000	-0.000000	0.000000	0.200000	0.000000	0.920000	0.000000	0.000000	-0.000000	-0.000000	-0.000000	0.000000	0.200000	0.000000	0.320000	0.000000	0.000000	-0.000000	
0.000500	-0.000000	-0.000000	0.000000	0.200000	0.000000	-0.300000	0.000000	0.000000	-0.000000	2.146580	502.388245	65.635658	0.210194	0.000000	-1.397728	0.000007	-1.713382	0.000008	-0.004143	452.763214	-60.426781	0.218325	0.000000	-0.968915	0.000031	1.601592	0.000007	-0.000000	-0.000000	0.000000	0.200000	0.000000	0.920000	0.000000	0.000000	-0.000000	-0.000000	-0.000000	0.000000	0.200000	0.000000	0.320000	0.000000	0.000000	-0.000000	
0.001000	-0.000000	-0.000000	0.000000	0.200000	0.000000	-0.300000	0.000000	0.000000	-0.000000	2.146580	503.344421	65.233643	0.210242	0.000000	-1.397588	0.000033	-1.741108	0.000003	0.157672	453.403503	-60.507046	0.218148	0.000000	-0.968967	0.000018	1.590974	0.000004	-0.000000	-0.000000	0.000000	0.200000	0.000000	0.920000	0.000000	0.000000	-0.000000	-0.000000	-0.000000	0.000000	0.200000	0.000000	0.320000	0.000000	0.000000	-0.000000	
0.001500	-0.000000	-0.000000	0.000000	0.200000	0.000000	-0.300000	0.000000	0.000000	-0.000000	1.824155	504.780426	64.993011	0.210090	0.000000	-1.398102	0.000050	-1.650054	0.000001	-0.004915	453.884857	-60.588333	0.218074	0.000000	-0.968834	0.000043	1.537603	0.000008	-0.000000	-0.000000	0.000000	0.200000	0.000000	0.920000	0.000000	0.000000	-0.000000	-0.000000	-0.000000	0.000000	0.200000	0.000000	0.320000	0.000000	0.000000	-0.000000	
0.002000	-0.000000	-0.000000	0.000000	0.200000	0.000000	-0.300000	0.000000	0.000000	-0.000000	1.501729	506.216431	64.752380	0.209939	0.000000	-1.398612	0.000025	-1.558794	0.000007	-0.167502	454.366211	-60.669621	0.217999	0.000000	-0.968701	-0.000000	1.484186	0.000007	-0.000000	-0.000000	0.000000	0.200000	0.000000	0.920000	0.000000	0.000000	-0.000000	-0.000000	-0.000000	0.000000	0.200000	0.000000	0.320000	0.000000	0.000000	-0.000000	
0.002500	-0.000000	-0.000000	0.000000	0.200000	0.000000	-0.300000	0.000000	0.000000	-0.000000	1.501984	506.535645	64.751877	0.210144	0.000000	-1.398684	0.000040	-1.662151	0.000005	-0.409839	454.685089	-60.508064	0.218038	0.000000	-0.968908	0.000039	1.535681	0.000003	-0.000000	-0.000000	0.000000	0.200000	0.000000	0.920000	0.000000	0.000000	-0.000000	-0.000000	-0.000000	0.000000	0.200000	0.000000	0.320000	0.000000	0.000000	-0.000000	
0.003000	-0.000000	-0.000000	0.000000	0.200000	0.000000	-0.300000	0.000000	0.000000	-0.000000	1.502239	506.854858	64.751366	0.210348	0.000000	-1.398755	0.000056	-1.765492	0.000006	-0.652175	455.003967	-60.346512	0.218076	0.000000	-0.969114	0.000025	1.587263	0.000008	-0.000000	-0.000000	0.000000	0.200000	0.000000	0.920000	0.000000	0.000000	-0.000000	-0.000000	-0.000000	0.000000	0.200000	0.000000	0.320000	0.000000	0.000000	-0.000000	
0.003500	-0.000000	-0.000000	0.000000	0.200000	0.000000	-0.300000	0.000000	0.000000	-0.000000	1.099971	506.535828	65.153214	0.210251	0.000000	-1.398900	-0.000013	-1.810537	0.000005	-0.571653	455.645630	-60.749378	0.218163	0.000000	-0.968371	0.000033	1.567929	0.000003	-0.000000	-0.000000	0.000000	0.200000	0.000000	0.920000	0.000000	0.000000	-0.000000	-0.000000	-0.000000	0.000000	0.200000	0.000000	0.320000	0.000000	0.000000	-0.000000	
0.004000	-0.000000	-0.000000	0.000000	0.200000	0.000000	-0.300000	0.000000	0.000000	-0.000000	0.697703	506.216797	65.555054	0.210155	0.000000	-1.399046	0.000022	-1.855379	0.000005	-0.491132	456.287262	-61.152245	0.218250	0.000000	-0.967630	0.000009	1.548772	0.000008	-0.000000	-0.000000	0.000000	0.200000	0.000000	0.920000	0.000000	0.000000	-0.000000	-0.000000	-0.000000	0.000000	0.200000	0.000000	0.320000	0.000000	0.000000	-0.000000	
0.004500	-0.000000	-0.000000	0.000000	0.200000	0.000000	-0.300000	0.000000	0.000000	-0.000000	1.019364	506.375916	65.072945	0.210069	0.000000	-1.398681	-0.000010	-1.779998	0.000003	-0.407522	455.169128	-60.909401	0.217920	0.000000	-0.967988	0.000024	1.680494	0.000002	-0.000000	-0.000000	0.000000	0.200000	0.000000	0.920000	0.000000	0.000000	-0.000000	-0.000000	-0.000000	0.000000	0.200000	0.000000	0.320000	0.000000	0.000000	-0.000000	
0.005000	-0.000000	-0.000000	0.000000	0.200000	0.000000	-0.300000	0.000000	0.000000	-0.000000	1.341026	506.535034	64.590836	0.209983	0.000000	-1.398316	0.000086	-1.704469	0.000004	-0.323912	454.051025	-60.666557	0.217589	0.000000	-0.968348	0.000020	1.812220	0.000010	-0.000000	-0.000000	0.000000	0.200000	0.000000	0.920000	0.000000	0.000000	-0.000000	-0.000000	-0.000000	0.000000	0.200000	0.000000	0.320000	0.000000	0.000000	-0.000000	
0.005500	-0.000000	-0.000000	0.000000	0.200000	0.000000	-0.300000	0.000000	0.000000	-0.000000	1.662942	504.780304	64.992844	0.210211	0.000000	-1.397851	0.000016	-1.660915	0.000005	-0.569337	454.204559	-60.508064	0.218002	0.000000	-0.968778	0.000030	1.641388	0.000007	-0.000000	-0.000000	0.000000	0.200000	0.000000	0.920000	0.000000	0.000000	-0.000000	-0.000000	-0.000000	0.000000	0.200000	0.000000	0.320000	0.000000	0.000000	-0.000000	
0.006000	-0.000000	-0.000000	0.000000	0.200000	0.000000	-0.300000	0.000000	0.000000	-0.000000	1.984858	503.025574	65.394859	0.210440	0.000000	-1.397382	0.000015	-1.617341	0.000002	-0.814761	454.358093	-60.349571	0.218415	0.000000	-0.969208	0.000039	1.470618	0.000004	-0.000000	-0.000000	0.000000	0.200000	0.000000	0.920000	0.000000	0.000000	-0.000000	-0.000000	-0.000000	0.000000	0.200000	0.000000	0.320000	0.000000	0.000000	-0.000000	
0.006500	-0.000000	-0.000000	0.000000	0.200000	0.000000	-0.300000	0.000000	0.000000	-0.000000	1.662942	503.823608	65.314255	0.210230	0.000000	-1.397872	-0.000013	-1.665462	0.000005	-0.165958	454.524445	-60.268791	0.218030	0.000000	-0.968840	0.000018	1.476015	0.000006	-0.000000	-0.000000	0.000000	0.200000	0.000000	0.920000	0.000000	0.000000	-0.000000	-0.000000	-0.000000	0.000000	0.200000	0.000000	0.320000	0.000000	0.000000	-0.000000	
0.007000	-0.000000	-0.000000	0.000000	0.200000	0.000000	-0.300000	0.000000	0.000000	-0.000000	1.341026	504.621643	65.233643	0.210021	0.000000	-1.398361	0.000065	-1.713343	0.000010	0.482846	454.690796	-60.188015	0.217646	0.000000	-0.968472	0.000013	1.481969	0.000005	-0.000000	-0.000000	0.000000	0.200000	0.000000	0.920000	0.000000	0.000000	-0.000000	-0.000000	-0.000000	0.000000	0.200000	0.000000	0.320000	0.000000	0.000000	-0.000000	
0.007500	-0.000000	-0.000000	0.000000	0.200000	0.000000	-0.300000	0.000000	0.000000	-0.000000	1.743803	504.780762	64.831970	0.210024	0.000000	-1.398624	0.000005	-1.707874	0.000008	-0.083892	455.005493	-59.864395	0.217822	0.000000	-0.968524	0.000020	1.566966	0.000007	-0.000000	-0.000000	0.000000	0.200000	0.000000	0.920000	0.000000	0.000000	-0.000000	-0.000000	-0.000000	0.000000	0.200000	0.000000	0.320000	0.000000	0.000000	-0.000000	
0.008000	-0.000000	-0.000000	0.000000	0.200000	0.000000	-0.300000	0.000000	0.000000	-0.000000	2.146580	504.939880	64.430298	0.210027	0.000000	-1.398888	0.000036	-1.702615	0.000006	-0.650630	455.320160	-59.540779	0.217997	0.000000	-0.968577	0.000030	1.651894	0.000007	-0.000000	-0.000000	0.000000	0.200000	0.000000	0.920000	0.000000	0.000000	-0.000000	-0.000000	-0.000000	0.000000	0.200000	0.000000	0.320000	0.000000	0.000000	-0.000000	
0.008500	-0.000000	-0.000000	0.000000	0.200000	0.000000	-0.300000	0.000000	0.000000	-0.000000	1.502748	504.620300	64.671097	0.209836	0.000000	-1.398921	0.000078	-1.786531	0.000008	-0.569336	454.040771	-60.024933	0.218137	0.000000	-0.968683	0.000007	1.640919	0.000003	-0.000000	-0.000000	0.000000	0.200000	0.000000	0.920000	0.000000	0.000000	-0.000000	-0.000000	-0.000000	0.000000	0.200000	0.000000	0.320000	0.000000	0.000000	-0.000000	
0.009000	-0.000000	-0.000000	0.000000	0.200000	0.000000	-0.300000	0.000000	0.000000	-0.000000	0.858916	504.300720	64.911903	0.209645	0.000000	-1.398954	0.000050	-1.870296	0.000006	-0.488043	452.761353	-60.509087	0.218278	0.000000	-0.968789	0.000011	1.630109	-0.000000	-0.000000	-0.000000	0.000000	0.200000	0.000000	0.920000	0.000000	0.000000	-0.000000	-0.000000	-0.000000	0.000000	0.200000	0.000000	0.320000	0.000000	0.000000	-0.000000	
0.009500	-0.000000	-0.000000	0.000000	0.200000	0.000000	-0.300000	0.000000	0.000000	-0.000000	1.099462	505.417023	64.590500	0.209745	0.000000	-1.398648	0.000022	-1.736431	0.000008	-0.488043	453.398285	-60.347534	0.218651	0.000000	-0.969349	0.000016	1.669338	0.000001	-0.000000	-0.000000	0.000000	0.200000	0.000000	0.920000	0.000000	0.000000	-0.000000	-0.000000	-0.000000	0.000000	0.200000	0.000000	0.320000	0.000000	0.000000	-0.000000	
0.010000	-0.000000	-0.000000	0.000000	0.200000	0.000000	-0.300000	0.000000	0.000000	-0.000000	1.340007	506.533325	64.269089	0.209844	0.000000	-1.398344	0.000036	-1.602328	0.000007	-0.488043	454.035217	-60.185978	0.219023	0.000000	-0.969907	0.000033	1.708384	0.000010	-0.000000	-0.000000	0.000000	0.200000	0.000000	0.920000	0.000000	0.000000	-0.000000	-0.000000	-0.000000	0.000000	0.200000	0.000000	0.320000	0.000000	0.000000	-0.000000	
0.010500	-0.000000	-0.000000	0.000000	0.200000	0.000000	-0.300000	0.000000	0.000000	-0.000000	1.743039	504.142151	65.072609	0.210015	0.000000	-1.397576	0.000014	-1.659575	0.000004	-0.246479	453.240875	-60.106216	0.218477	0.000000	-0.969284	0.000022	1.579706	0.000003	-0.000000	-0.000000	0.000000	0.200000	0.000000	0.920000	0.000000	0.000000	-0.000000	-0.000000	-0.000000	0.000000	0.200000	0.000000	0.320000	0.000000	0.000000	-0.000000	
